<svg xmlns="http://www.w3.org/2000/svg" xmlns:xlink="http://www.w3.org/1999/xlink" width="404" height="404" viewBox="0 0 404 404">
  <defs>
    <filter id="Icon_simple-pingup" x="107.063" y="78.738" width="204.502" height="253.411" filterUnits="userSpaceOnUse">
      <feOffset dy="16" input="SourceAlpha"/>
      <feGaussianBlur result="blur"/>
      <feFlood/>
      <feComposite operator="in" in2="blur"/>
      <feComposite in="SourceGraphic"/>
    </filter>
    <filter id="Ellipse_2" x="215.417" y="276.166" width="44.724" height="52.723" filterUnits="userSpaceOnUse">
      <feOffset dy="8" input="SourceAlpha"/>
      <feGaussianBlur result="blur-2"/>
      <feFlood flood-color="#18191f"/>
      <feComposite operator="in" in2="blur-2"/>
      <feComposite in="SourceGraphic"/>
    </filter>
  </defs>
  <g id="Group_120" data-name="Group 120" transform="translate(10538 492)">
    <g id="Group_119" data-name="Group 119" transform="translate(-10957 -1227)">
      <g id="Ellipse_1" data-name="Ellipse 1" transform="translate(419 735)" fill="#ffbd12" stroke="#fff" stroke-width="10">
        <circle cx="202" cy="202" r="202" stroke="none"/>
        <circle cx="202" cy="202" r="197" fill="none"/>
      </g>
      <g transform="matrix(1, 0, 0, 1, 419, 735)" filter="url(#Icon_simple-pingup)">
        <path id="Icon_simple-pingup-2" data-name="Icon simple-pingup" d="M116.771,0H2.581V229.411H74.617V92.883H48.234c-4.818,0-6.213-3-3.059-6.672L86.508,38a7.3,7.3,0,0,1,11.423,0l41.332,48.215c3,3.671,1.721,6.672-3.154,6.672H109.736V156.7h6.978c59.5,0,82.368-41.189,82.368-81.068C199.206,37.337,174.114,0,116.771,0" transform="translate(108.48 82.74)" fill="#fff" stroke="#000" stroke-width="8"/>
      </g>
      <g transform="matrix(1, 0, 0, 1, 419, 735)" filter="url(#Ellipse_2)">
        <g id="Ellipse_2-2" data-name="Ellipse 2" transform="translate(215.42 276.17)" fill="#fff" stroke="#18191f" stroke-width="6">
          <circle cx="22.362" cy="22.362" r="22.362" stroke="none"/>
          <circle cx="22.362" cy="22.362" r="19.362" fill="none"/>
        </g>
      </g>
    </g>
  </g>
</svg>
